G04 EAGLE Gerber X2 export*
%TF.Part,Single*%
%TF.FileFunction,Copper,L1,Top,Mixed*%
%TF.FilePolarity,Positive*%
%TF.GenerationSoftware,Autodesk,EAGLE,8.6.0*%
%TF.CreationDate,2018-02-02T01:37:18Z*%
G75*
%MOMM*%
%FSLAX34Y34*%
%LPD*%
%AMOC8*
5,1,8,0,0,1.08239X$1,22.5*%
G01*
%ADD10C,1.320800*%
%ADD11P,1.429621X8X22.500000*%
%ADD12C,1.524000*%
%ADD13P,1.429621X8X202.500000*%
%ADD14P,1.429621X8X292.500000*%
%ADD15C,1.320800*%
%ADD16C,0.508000*%
%ADD17C,0.254000*%

G36*
X601318Y189742D02*
X601318Y189742D01*
X601337Y189740D01*
X601439Y189762D01*
X601541Y189779D01*
X601558Y189788D01*
X601578Y189792D01*
X601667Y189845D01*
X601758Y189894D01*
X601772Y189908D01*
X601789Y189918D01*
X601856Y189997D01*
X601928Y190072D01*
X601936Y190090D01*
X601949Y190105D01*
X601988Y190201D01*
X602031Y190295D01*
X602033Y190315D01*
X602041Y190333D01*
X602059Y190500D01*
X602059Y192000D01*
X603207Y194772D01*
X605328Y196893D01*
X608100Y198041D01*
X609600Y198041D01*
X609620Y198044D01*
X609639Y198042D01*
X609741Y198064D01*
X609843Y198080D01*
X609860Y198090D01*
X609880Y198094D01*
X609969Y198147D01*
X610060Y198196D01*
X610074Y198210D01*
X610091Y198220D01*
X610158Y198299D01*
X610230Y198374D01*
X610238Y198392D01*
X610251Y198407D01*
X610290Y198503D01*
X610333Y198597D01*
X610335Y198617D01*
X610343Y198635D01*
X610361Y198802D01*
X610361Y639398D01*
X610358Y639418D01*
X610360Y639437D01*
X610338Y639539D01*
X610322Y639641D01*
X610312Y639658D01*
X610308Y639678D01*
X610255Y639767D01*
X610206Y639858D01*
X610192Y639872D01*
X610182Y639889D01*
X610103Y639956D01*
X610028Y640028D01*
X610010Y640036D01*
X609995Y640049D01*
X609899Y640088D01*
X609805Y640131D01*
X609785Y640133D01*
X609767Y640141D01*
X609600Y640159D01*
X608100Y640159D01*
X605328Y641307D01*
X603207Y643428D01*
X602059Y646200D01*
X602059Y647700D01*
X602056Y647720D01*
X602058Y647739D01*
X602036Y647841D01*
X602020Y647943D01*
X602010Y647960D01*
X602006Y647980D01*
X601953Y648069D01*
X601904Y648160D01*
X601890Y648174D01*
X601880Y648191D01*
X601801Y648258D01*
X601726Y648330D01*
X601708Y648338D01*
X601693Y648351D01*
X601597Y648390D01*
X601503Y648433D01*
X601483Y648435D01*
X601465Y648443D01*
X601298Y648461D01*
X355600Y648461D01*
X355580Y648458D01*
X355561Y648460D01*
X355459Y648438D01*
X355357Y648422D01*
X355340Y648412D01*
X355320Y648408D01*
X355231Y648355D01*
X355140Y648306D01*
X355126Y648292D01*
X355109Y648282D01*
X355042Y648203D01*
X354971Y648128D01*
X354962Y648110D01*
X354949Y648095D01*
X354910Y647999D01*
X354867Y647905D01*
X354865Y647885D01*
X354857Y647867D01*
X354839Y647700D01*
X354839Y190500D01*
X354842Y190480D01*
X354840Y190461D01*
X354862Y190359D01*
X354879Y190257D01*
X354888Y190240D01*
X354892Y190220D01*
X354945Y190131D01*
X354994Y190040D01*
X355008Y190026D01*
X355018Y190009D01*
X355097Y189942D01*
X355172Y189871D01*
X355190Y189862D01*
X355205Y189849D01*
X355301Y189810D01*
X355395Y189767D01*
X355415Y189765D01*
X355433Y189757D01*
X355600Y189739D01*
X601298Y189739D01*
X601318Y189742D01*
G37*
G36*
X101620Y190504D02*
X101620Y190504D01*
X101639Y190502D01*
X101741Y190524D01*
X101843Y190540D01*
X101860Y190550D01*
X101880Y190554D01*
X101969Y190607D01*
X102060Y190656D01*
X102074Y190670D01*
X102091Y190680D01*
X102158Y190759D01*
X102230Y190834D01*
X102238Y190852D01*
X102251Y190867D01*
X102290Y190963D01*
X102333Y191057D01*
X102335Y191077D01*
X102343Y191095D01*
X102361Y191262D01*
X102361Y207518D01*
X102358Y207538D01*
X102360Y207557D01*
X102338Y207659D01*
X102322Y207761D01*
X102312Y207778D01*
X102308Y207798D01*
X102255Y207887D01*
X102206Y207978D01*
X102192Y207992D01*
X102182Y208009D01*
X102103Y208076D01*
X102028Y208148D01*
X102010Y208156D01*
X101995Y208169D01*
X101899Y208208D01*
X101805Y208251D01*
X101785Y208253D01*
X101767Y208261D01*
X101600Y208279D01*
X89938Y208279D01*
X82469Y211373D01*
X76753Y217089D01*
X73659Y224558D01*
X73659Y232642D01*
X76753Y240111D01*
X82469Y245827D01*
X85335Y247014D01*
X85428Y247072D01*
X85523Y247126D01*
X85532Y247136D01*
X85544Y247144D01*
X85614Y247228D01*
X85687Y247309D01*
X85692Y247322D01*
X85701Y247333D01*
X85740Y247435D01*
X85783Y247536D01*
X85784Y247550D01*
X85789Y247563D01*
X85794Y247672D01*
X85803Y247781D01*
X85799Y247794D01*
X85800Y247809D01*
X85769Y247914D01*
X85743Y248019D01*
X85734Y248034D01*
X85731Y248045D01*
X85715Y248069D01*
X85660Y248165D01*
X85290Y248675D01*
X84564Y250100D01*
X84069Y251621D01*
X83934Y252477D01*
X100838Y252477D01*
X100858Y252480D01*
X100877Y252478D01*
X100979Y252500D01*
X101081Y252517D01*
X101098Y252526D01*
X101118Y252530D01*
X101207Y252583D01*
X101298Y252632D01*
X101312Y252646D01*
X101329Y252656D01*
X101396Y252735D01*
X101467Y252810D01*
X101476Y252828D01*
X101489Y252843D01*
X101527Y252939D01*
X101571Y253033D01*
X101573Y253053D01*
X101581Y253071D01*
X101599Y253238D01*
X101599Y254762D01*
X101596Y254782D01*
X101598Y254801D01*
X101576Y254903D01*
X101559Y255005D01*
X101550Y255022D01*
X101546Y255042D01*
X101493Y255131D01*
X101444Y255222D01*
X101430Y255236D01*
X101420Y255253D01*
X101341Y255320D01*
X101266Y255391D01*
X101248Y255400D01*
X101233Y255413D01*
X101137Y255452D01*
X101043Y255495D01*
X101023Y255497D01*
X101005Y255505D01*
X100838Y255523D01*
X83934Y255523D01*
X84069Y256379D01*
X84564Y257900D01*
X85290Y259325D01*
X85660Y259835D01*
X85709Y259932D01*
X85762Y260028D01*
X85764Y260042D01*
X85771Y260055D01*
X85786Y260163D01*
X85805Y260270D01*
X85803Y260284D01*
X85805Y260298D01*
X85785Y260405D01*
X85769Y260513D01*
X85763Y260526D01*
X85760Y260540D01*
X85707Y260635D01*
X85658Y260733D01*
X85648Y260743D01*
X85641Y260755D01*
X85560Y260828D01*
X85482Y260905D01*
X85467Y260913D01*
X85459Y260921D01*
X85433Y260932D01*
X85335Y260986D01*
X82469Y262173D01*
X76753Y267889D01*
X73659Y275358D01*
X73659Y283442D01*
X76753Y290911D01*
X82469Y296627D01*
X89938Y299721D01*
X101600Y299721D01*
X101620Y299724D01*
X101639Y299722D01*
X101741Y299744D01*
X101843Y299760D01*
X101860Y299770D01*
X101880Y299774D01*
X101969Y299827D01*
X102060Y299876D01*
X102074Y299890D01*
X102091Y299900D01*
X102158Y299979D01*
X102230Y300054D01*
X102238Y300072D01*
X102251Y300087D01*
X102290Y300183D01*
X102333Y300277D01*
X102335Y300297D01*
X102343Y300315D01*
X102361Y300482D01*
X102361Y321818D01*
X102358Y321838D01*
X102360Y321857D01*
X102338Y321959D01*
X102322Y322061D01*
X102312Y322078D01*
X102308Y322098D01*
X102255Y322187D01*
X102206Y322278D01*
X102192Y322292D01*
X102182Y322309D01*
X102103Y322376D01*
X102028Y322448D01*
X102010Y322456D01*
X101995Y322469D01*
X101899Y322508D01*
X101805Y322551D01*
X101785Y322553D01*
X101767Y322561D01*
X101600Y322579D01*
X89938Y322579D01*
X82469Y325673D01*
X76753Y331389D01*
X73659Y338858D01*
X73659Y346942D01*
X76753Y354411D01*
X82469Y360127D01*
X85335Y361314D01*
X85428Y361372D01*
X85523Y361426D01*
X85532Y361436D01*
X85544Y361444D01*
X85614Y361528D01*
X85687Y361609D01*
X85692Y361622D01*
X85701Y361633D01*
X85740Y361735D01*
X85783Y361836D01*
X85784Y361850D01*
X85789Y361863D01*
X85794Y361972D01*
X85803Y362081D01*
X85799Y362094D01*
X85800Y362109D01*
X85769Y362214D01*
X85743Y362319D01*
X85734Y362334D01*
X85731Y362345D01*
X85715Y362369D01*
X85660Y362465D01*
X85290Y362975D01*
X84564Y364400D01*
X84069Y365921D01*
X83934Y366777D01*
X100838Y366777D01*
X100858Y366780D01*
X100877Y366778D01*
X100979Y366800D01*
X101081Y366817D01*
X101098Y366826D01*
X101118Y366830D01*
X101207Y366883D01*
X101298Y366932D01*
X101312Y366946D01*
X101329Y366956D01*
X101396Y367035D01*
X101467Y367110D01*
X101476Y367128D01*
X101489Y367143D01*
X101527Y367239D01*
X101571Y367333D01*
X101573Y367353D01*
X101581Y367371D01*
X101599Y367538D01*
X101599Y369062D01*
X101596Y369082D01*
X101598Y369101D01*
X101576Y369203D01*
X101559Y369305D01*
X101550Y369322D01*
X101546Y369342D01*
X101493Y369431D01*
X101444Y369522D01*
X101430Y369536D01*
X101420Y369553D01*
X101341Y369620D01*
X101266Y369691D01*
X101248Y369700D01*
X101233Y369713D01*
X101137Y369752D01*
X101043Y369795D01*
X101023Y369797D01*
X101005Y369805D01*
X100838Y369823D01*
X83934Y369823D01*
X84069Y370679D01*
X84564Y372200D01*
X85290Y373625D01*
X85660Y374135D01*
X85709Y374232D01*
X85762Y374328D01*
X85764Y374342D01*
X85771Y374355D01*
X85786Y374463D01*
X85805Y374570D01*
X85803Y374584D01*
X85805Y374598D01*
X85785Y374705D01*
X85769Y374813D01*
X85763Y374826D01*
X85760Y374840D01*
X85707Y374935D01*
X85658Y375033D01*
X85648Y375043D01*
X85641Y375055D01*
X85560Y375128D01*
X85482Y375205D01*
X85467Y375213D01*
X85459Y375221D01*
X85433Y375232D01*
X85335Y375286D01*
X82469Y376473D01*
X76753Y382189D01*
X73659Y389658D01*
X73659Y397742D01*
X76753Y405211D01*
X82469Y410927D01*
X89938Y414021D01*
X101600Y414021D01*
X101620Y414024D01*
X101639Y414022D01*
X101741Y414044D01*
X101843Y414060D01*
X101860Y414070D01*
X101880Y414074D01*
X101969Y414127D01*
X102060Y414176D01*
X102074Y414190D01*
X102091Y414200D01*
X102158Y414279D01*
X102230Y414354D01*
X102238Y414372D01*
X102251Y414387D01*
X102290Y414483D01*
X102333Y414577D01*
X102335Y414597D01*
X102343Y414615D01*
X102361Y414782D01*
X102361Y436118D01*
X102358Y436138D01*
X102360Y436157D01*
X102338Y436259D01*
X102322Y436361D01*
X102312Y436378D01*
X102308Y436398D01*
X102255Y436487D01*
X102206Y436578D01*
X102192Y436592D01*
X102182Y436609D01*
X102103Y436676D01*
X102028Y436748D01*
X102010Y436756D01*
X101995Y436769D01*
X101899Y436808D01*
X101805Y436851D01*
X101785Y436853D01*
X101767Y436861D01*
X101600Y436879D01*
X89938Y436879D01*
X82469Y439973D01*
X76753Y445689D01*
X73659Y453158D01*
X73659Y461242D01*
X76753Y468711D01*
X82469Y474427D01*
X85335Y475614D01*
X85428Y475672D01*
X85523Y475726D01*
X85532Y475736D01*
X85544Y475744D01*
X85614Y475828D01*
X85687Y475909D01*
X85692Y475922D01*
X85701Y475933D01*
X85740Y476035D01*
X85783Y476136D01*
X85784Y476150D01*
X85789Y476163D01*
X85794Y476272D01*
X85803Y476381D01*
X85799Y476394D01*
X85800Y476409D01*
X85769Y476514D01*
X85743Y476619D01*
X85734Y476634D01*
X85731Y476645D01*
X85715Y476669D01*
X85660Y476765D01*
X85290Y477275D01*
X84564Y478700D01*
X84069Y480221D01*
X83934Y481077D01*
X100838Y481077D01*
X100858Y481080D01*
X100877Y481078D01*
X100979Y481100D01*
X101081Y481117D01*
X101098Y481126D01*
X101118Y481130D01*
X101207Y481183D01*
X101298Y481232D01*
X101312Y481246D01*
X101329Y481256D01*
X101396Y481335D01*
X101467Y481410D01*
X101476Y481428D01*
X101489Y481443D01*
X101527Y481539D01*
X101571Y481633D01*
X101573Y481653D01*
X101581Y481671D01*
X101599Y481838D01*
X101599Y483362D01*
X101596Y483382D01*
X101598Y483401D01*
X101576Y483503D01*
X101559Y483605D01*
X101550Y483622D01*
X101546Y483642D01*
X101493Y483731D01*
X101444Y483822D01*
X101430Y483836D01*
X101420Y483853D01*
X101341Y483920D01*
X101266Y483991D01*
X101248Y484000D01*
X101233Y484013D01*
X101137Y484052D01*
X101043Y484095D01*
X101023Y484097D01*
X101005Y484105D01*
X100838Y484123D01*
X83934Y484123D01*
X84069Y484979D01*
X84564Y486500D01*
X85290Y487925D01*
X85660Y488435D01*
X85709Y488532D01*
X85762Y488628D01*
X85764Y488642D01*
X85771Y488655D01*
X85786Y488763D01*
X85805Y488870D01*
X85803Y488884D01*
X85805Y488898D01*
X85785Y489005D01*
X85769Y489113D01*
X85763Y489126D01*
X85760Y489140D01*
X85707Y489235D01*
X85658Y489333D01*
X85648Y489343D01*
X85641Y489355D01*
X85560Y489428D01*
X85482Y489505D01*
X85467Y489513D01*
X85459Y489521D01*
X85433Y489532D01*
X85335Y489586D01*
X82469Y490773D01*
X76753Y496489D01*
X73659Y503958D01*
X73659Y512042D01*
X76753Y519511D01*
X82469Y525227D01*
X89938Y528321D01*
X101600Y528321D01*
X101620Y528324D01*
X101639Y528322D01*
X101741Y528344D01*
X101843Y528360D01*
X101860Y528370D01*
X101880Y528374D01*
X101969Y528427D01*
X102060Y528476D01*
X102074Y528490D01*
X102091Y528500D01*
X102158Y528579D01*
X102230Y528654D01*
X102238Y528672D01*
X102251Y528687D01*
X102290Y528783D01*
X102333Y528877D01*
X102335Y528897D01*
X102343Y528915D01*
X102361Y529082D01*
X102361Y561830D01*
X102349Y561905D01*
X102346Y561981D01*
X102329Y562026D01*
X102322Y562073D01*
X102286Y562140D01*
X102259Y562211D01*
X102229Y562248D01*
X102206Y562290D01*
X102152Y562343D01*
X102104Y562401D01*
X102063Y562427D01*
X102028Y562460D01*
X101959Y562492D01*
X101895Y562532D01*
X101849Y562543D01*
X101805Y562563D01*
X101730Y562572D01*
X101656Y562590D01*
X101608Y562585D01*
X101561Y562591D01*
X101487Y562575D01*
X101411Y562568D01*
X101351Y562545D01*
X101320Y562538D01*
X101298Y562525D01*
X101254Y562509D01*
X100420Y562084D01*
X98899Y561589D01*
X97320Y561339D01*
X90423Y561339D01*
X90423Y570738D01*
X90420Y570758D01*
X90422Y570777D01*
X90400Y570879D01*
X90383Y570981D01*
X90374Y570998D01*
X90370Y571018D01*
X90317Y571107D01*
X90268Y571198D01*
X90254Y571212D01*
X90244Y571229D01*
X90165Y571296D01*
X90090Y571367D01*
X90072Y571376D01*
X90057Y571389D01*
X89961Y571427D01*
X89867Y571471D01*
X89847Y571473D01*
X89829Y571481D01*
X89662Y571499D01*
X88899Y571499D01*
X88899Y572262D01*
X88896Y572282D01*
X88898Y572301D01*
X88876Y572403D01*
X88859Y572505D01*
X88850Y572522D01*
X88846Y572542D01*
X88793Y572631D01*
X88744Y572722D01*
X88730Y572736D01*
X88720Y572753D01*
X88641Y572820D01*
X88566Y572891D01*
X88548Y572900D01*
X88533Y572913D01*
X88437Y572952D01*
X88343Y572995D01*
X88323Y572997D01*
X88305Y573005D01*
X88138Y573023D01*
X71234Y573023D01*
X71369Y573879D01*
X71864Y575400D01*
X72590Y576825D01*
X72960Y577335D01*
X73009Y577432D01*
X73062Y577528D01*
X73064Y577542D01*
X73071Y577555D01*
X73086Y577662D01*
X73105Y577770D01*
X73103Y577784D01*
X73105Y577798D01*
X73085Y577906D01*
X73070Y578013D01*
X73063Y578026D01*
X73060Y578040D01*
X73007Y578135D01*
X72958Y578233D01*
X72948Y578243D01*
X72941Y578255D01*
X72861Y578328D01*
X72782Y578405D01*
X72767Y578413D01*
X72759Y578421D01*
X72733Y578432D01*
X72635Y578486D01*
X69769Y579673D01*
X64053Y585389D01*
X60959Y592858D01*
X60959Y600942D01*
X64053Y608411D01*
X69769Y614127D01*
X77238Y617221D01*
X100562Y617221D01*
X101309Y616911D01*
X101353Y616901D01*
X101395Y616882D01*
X101472Y616873D01*
X101548Y616855D01*
X101594Y616860D01*
X101639Y616855D01*
X101716Y616871D01*
X101793Y616878D01*
X101835Y616897D01*
X101880Y616907D01*
X101947Y616947D01*
X102018Y616978D01*
X102052Y617009D01*
X102091Y617033D01*
X102142Y617092D01*
X102199Y617145D01*
X102221Y617185D01*
X102251Y617220D01*
X102280Y617292D01*
X102317Y617360D01*
X102326Y617405D01*
X102343Y617448D01*
X102358Y617584D01*
X102361Y617602D01*
X102360Y617607D01*
X102361Y617615D01*
X102361Y646838D01*
X102358Y646858D01*
X102360Y646877D01*
X102338Y646979D01*
X102322Y647081D01*
X102312Y647098D01*
X102308Y647118D01*
X102255Y647207D01*
X102206Y647298D01*
X102192Y647312D01*
X102182Y647329D01*
X102103Y647396D01*
X102028Y647468D01*
X102010Y647476D01*
X101995Y647489D01*
X101899Y647528D01*
X101805Y647571D01*
X101785Y647573D01*
X101767Y647581D01*
X101600Y647599D01*
X51562Y647599D01*
X51542Y647596D01*
X51523Y647598D01*
X51421Y647576D01*
X51319Y647560D01*
X51302Y647550D01*
X51282Y647546D01*
X51193Y647493D01*
X51102Y647444D01*
X51088Y647430D01*
X51071Y647420D01*
X51004Y647341D01*
X50932Y647266D01*
X50924Y647248D01*
X50911Y647233D01*
X50872Y647137D01*
X50829Y647043D01*
X50827Y647023D01*
X50819Y647005D01*
X50801Y646838D01*
X50801Y191262D01*
X50804Y191242D01*
X50802Y191223D01*
X50824Y191121D01*
X50840Y191019D01*
X50850Y191002D01*
X50854Y190982D01*
X50907Y190893D01*
X50956Y190802D01*
X50970Y190788D01*
X50980Y190771D01*
X51059Y190704D01*
X51134Y190632D01*
X51152Y190624D01*
X51167Y190611D01*
X51263Y190572D01*
X51357Y190529D01*
X51377Y190527D01*
X51395Y190519D01*
X51562Y190501D01*
X101600Y190501D01*
X101620Y190504D01*
G37*
%LPC*%
G36*
X574458Y459231D02*
X574458Y459231D01*
X570537Y460855D01*
X567535Y463857D01*
X565911Y467778D01*
X565911Y472022D01*
X566970Y474578D01*
X566989Y474660D01*
X567017Y474740D01*
X567017Y474779D01*
X567026Y474817D01*
X567018Y474901D01*
X567019Y474986D01*
X567007Y475023D01*
X567003Y475062D01*
X566968Y475139D01*
X566942Y475220D01*
X566919Y475251D01*
X566903Y475287D01*
X566846Y475349D01*
X566795Y475417D01*
X566755Y475448D01*
X566736Y475468D01*
X566710Y475482D01*
X566662Y475519D01*
X539842Y491845D01*
X538592Y492606D01*
X538591Y492606D01*
X537341Y493367D01*
X536090Y494128D01*
X534840Y494890D01*
X534839Y494890D01*
X533589Y495651D01*
X532338Y496412D01*
X531088Y497173D01*
X529837Y497935D01*
X528587Y498696D01*
X528586Y498696D01*
X527336Y499457D01*
X526085Y500218D01*
X524835Y500980D01*
X524834Y500980D01*
X523584Y501741D01*
X522333Y502502D01*
X521083Y503263D01*
X519832Y504025D01*
X518582Y504786D01*
X518581Y504786D01*
X517331Y505547D01*
X516080Y506308D01*
X514830Y507070D01*
X514829Y507070D01*
X513579Y507831D01*
X512328Y508592D01*
X511078Y509353D01*
X509827Y510115D01*
X508577Y510876D01*
X508576Y510876D01*
X507326Y511637D01*
X506075Y512398D01*
X504825Y513160D01*
X504824Y513160D01*
X503574Y513921D01*
X502323Y514682D01*
X501073Y515443D01*
X499822Y516205D01*
X498572Y516966D01*
X498571Y516966D01*
X497321Y517727D01*
X496070Y518488D01*
X494820Y519250D01*
X494819Y519250D01*
X493569Y520011D01*
X492318Y520772D01*
X491068Y521533D01*
X489817Y522295D01*
X488567Y523056D01*
X488566Y523056D01*
X487316Y523817D01*
X486065Y524578D01*
X484815Y525340D01*
X484814Y525340D01*
X483564Y526101D01*
X482313Y526862D01*
X481063Y527623D01*
X479812Y528385D01*
X478562Y529146D01*
X478561Y529146D01*
X477311Y529907D01*
X476060Y530668D01*
X474810Y531430D01*
X474809Y531430D01*
X473559Y532191D01*
X472308Y532952D01*
X471058Y533713D01*
X469807Y534475D01*
X468557Y535236D01*
X468556Y535236D01*
X467306Y535997D01*
X466055Y536758D01*
X464805Y537520D01*
X464804Y537520D01*
X463554Y538281D01*
X462303Y539042D01*
X461053Y539803D01*
X459802Y540565D01*
X458552Y541326D01*
X458551Y541326D01*
X457301Y542087D01*
X456050Y542848D01*
X454800Y543610D01*
X454799Y543610D01*
X453549Y544371D01*
X452298Y545132D01*
X451048Y545893D01*
X449797Y546655D01*
X448547Y547416D01*
X448546Y547416D01*
X447296Y548177D01*
X446045Y548938D01*
X444795Y549700D01*
X444794Y549700D01*
X443544Y550461D01*
X442293Y551222D01*
X441043Y551983D01*
X439792Y552745D01*
X438542Y553506D01*
X438541Y553506D01*
X437291Y554267D01*
X437121Y554370D01*
X437120Y554371D01*
X437000Y554419D01*
X436893Y554463D01*
X436892Y554463D01*
X436726Y554481D01*
X436361Y554481D01*
X435527Y555316D01*
X435521Y555320D01*
X435517Y555325D01*
X435384Y555428D01*
X434376Y556041D01*
X434290Y556395D01*
X434290Y556396D01*
X434244Y556504D01*
X434194Y556622D01*
X434194Y556623D01*
X434089Y556754D01*
X433831Y557011D01*
X433831Y558191D01*
X433830Y558198D01*
X433831Y558205D01*
X433830Y558217D01*
X433830Y558223D01*
X433827Y558240D01*
X433810Y558371D01*
X433531Y559517D01*
X433720Y559829D01*
X433721Y559830D01*
X433769Y559950D01*
X433813Y560057D01*
X433813Y560058D01*
X433831Y560225D01*
X433831Y599186D01*
X433828Y599206D01*
X433830Y599225D01*
X433808Y599327D01*
X433792Y599429D01*
X433782Y599446D01*
X433778Y599466D01*
X433725Y599555D01*
X433676Y599646D01*
X433662Y599660D01*
X433652Y599677D01*
X433573Y599744D01*
X433498Y599816D01*
X433480Y599824D01*
X433465Y599837D01*
X433369Y599876D01*
X433275Y599919D01*
X433255Y599921D01*
X433237Y599929D01*
X433070Y599947D01*
X427802Y599947D01*
X422691Y605058D01*
X422617Y605111D01*
X422547Y605171D01*
X422517Y605183D01*
X422491Y605202D01*
X422404Y605229D01*
X422319Y605263D01*
X422278Y605267D01*
X422256Y605274D01*
X422224Y605273D01*
X422152Y605281D01*
X390676Y605281D01*
X390561Y605262D01*
X390445Y605245D01*
X390439Y605243D01*
X390433Y605242D01*
X390331Y605187D01*
X390226Y605134D01*
X390221Y605129D01*
X390216Y605126D01*
X390136Y605042D01*
X390053Y604958D01*
X390050Y604952D01*
X390046Y604948D01*
X390038Y604931D01*
X389972Y604811D01*
X389691Y604132D01*
X386976Y601417D01*
X383428Y599947D01*
X366380Y599947D01*
X362832Y601417D01*
X360117Y604132D01*
X358647Y607680D01*
X358647Y611520D01*
X360117Y615068D01*
X362832Y617783D01*
X366380Y619253D01*
X383428Y619253D01*
X386976Y617783D01*
X389691Y615068D01*
X389972Y614389D01*
X390034Y614289D01*
X390094Y614189D01*
X390099Y614185D01*
X390102Y614180D01*
X390193Y614105D01*
X390281Y614029D01*
X390287Y614027D01*
X390292Y614023D01*
X390400Y613981D01*
X390509Y613937D01*
X390517Y613936D01*
X390521Y613935D01*
X390539Y613934D01*
X390676Y613919D01*
X422152Y613919D01*
X422242Y613933D01*
X422333Y613941D01*
X422363Y613953D01*
X422395Y613958D01*
X422476Y614001D01*
X422560Y614037D01*
X422592Y614063D01*
X422613Y614074D01*
X422635Y614097D01*
X422691Y614142D01*
X427802Y619253D01*
X435798Y619253D01*
X441453Y613598D01*
X441453Y612720D01*
X441467Y612630D01*
X441475Y612539D01*
X441487Y612509D01*
X441492Y612477D01*
X441535Y612397D01*
X441571Y612313D01*
X441597Y612281D01*
X441608Y612260D01*
X441631Y612238D01*
X441676Y612182D01*
X442469Y611389D01*
X442469Y561655D01*
X442478Y561597D01*
X442478Y561538D01*
X442498Y561476D01*
X442508Y561412D01*
X442536Y561360D01*
X442554Y561304D01*
X442593Y561252D01*
X442624Y561195D01*
X442666Y561154D01*
X442701Y561107D01*
X442779Y561047D01*
X442802Y561025D01*
X442815Y561019D01*
X442834Y561005D01*
X483555Y536218D01*
X484806Y535457D01*
X486056Y534695D01*
X486057Y534695D01*
X487307Y533934D01*
X488558Y533173D01*
X489808Y532412D01*
X491059Y531650D01*
X492310Y530889D01*
X493560Y530128D01*
X494811Y529367D01*
X496061Y528605D01*
X496062Y528605D01*
X497312Y527844D01*
X498563Y527083D01*
X499813Y526322D01*
X501064Y525560D01*
X502315Y524799D01*
X503565Y524038D01*
X504816Y523277D01*
X506066Y522515D01*
X506067Y522515D01*
X507317Y521754D01*
X508568Y520993D01*
X509818Y520232D01*
X511069Y519470D01*
X512320Y518709D01*
X513570Y517948D01*
X514821Y517187D01*
X516071Y516425D01*
X516072Y516425D01*
X517322Y515664D01*
X518573Y514903D01*
X519823Y514142D01*
X521074Y513380D01*
X522325Y512619D01*
X523575Y511858D01*
X524826Y511097D01*
X526076Y510335D01*
X526077Y510335D01*
X527327Y509574D01*
X528578Y508813D01*
X529828Y508052D01*
X531079Y507290D01*
X532330Y506529D01*
X533580Y505768D01*
X534831Y505007D01*
X536081Y504245D01*
X536082Y504245D01*
X537332Y503484D01*
X538583Y502723D01*
X539833Y501962D01*
X541084Y501200D01*
X542335Y500439D01*
X543585Y499678D01*
X544836Y498917D01*
X546086Y498155D01*
X546087Y498155D01*
X547337Y497394D01*
X548588Y496633D01*
X549838Y495872D01*
X551089Y495110D01*
X552340Y494349D01*
X553590Y493588D01*
X554841Y492827D01*
X556091Y492065D01*
X556092Y492065D01*
X557342Y491304D01*
X558593Y490543D01*
X559843Y489782D01*
X561094Y489020D01*
X562344Y488259D01*
X562345Y488259D01*
X563595Y487498D01*
X564846Y486737D01*
X566096Y485975D01*
X566097Y485975D01*
X567347Y485214D01*
X568598Y484453D01*
X569848Y483692D01*
X571099Y482930D01*
X572349Y482169D01*
X572350Y482169D01*
X573600Y481408D01*
X574797Y480680D01*
X574797Y480679D01*
X574918Y480631D01*
X575025Y480587D01*
X575026Y480587D01*
X575192Y480569D01*
X593942Y480569D01*
X597863Y478945D01*
X600865Y475943D01*
X602489Y472022D01*
X602489Y467778D01*
X600865Y463857D01*
X597863Y460855D01*
X593942Y459231D01*
X574458Y459231D01*
G37*
%LPD*%
%LPC*%
G36*
X440502Y231647D02*
X440502Y231647D01*
X434847Y237302D01*
X434847Y245298D01*
X440502Y250953D01*
X448498Y250953D01*
X453609Y245842D01*
X453683Y245789D01*
X453753Y245729D01*
X453783Y245717D01*
X453809Y245698D01*
X453896Y245671D01*
X453981Y245637D01*
X454022Y245633D01*
X454044Y245626D01*
X454076Y245627D01*
X454148Y245619D01*
X479528Y245619D01*
X479643Y245638D01*
X479759Y245655D01*
X479765Y245657D01*
X479771Y245658D01*
X479873Y245713D01*
X479978Y245766D01*
X479983Y245771D01*
X479988Y245774D01*
X480068Y245858D01*
X480151Y245942D01*
X480154Y245948D01*
X480158Y245952D01*
X480166Y245969D01*
X480232Y246089D01*
X480513Y246768D01*
X483228Y249483D01*
X486776Y250953D01*
X503824Y250953D01*
X505106Y250422D01*
X505189Y250402D01*
X505270Y250375D01*
X505308Y250374D01*
X505345Y250366D01*
X505430Y250374D01*
X505516Y250373D01*
X505552Y250385D01*
X505590Y250389D01*
X505668Y250424D01*
X505750Y250450D01*
X505791Y250478D01*
X505815Y250489D01*
X505837Y250509D01*
X505889Y250544D01*
X579612Y312925D01*
X579685Y313011D01*
X579771Y313111D01*
X579771Y313112D01*
X579813Y313216D01*
X579863Y313339D01*
X579863Y313340D01*
X579863Y313342D01*
X579881Y313506D01*
X579881Y382270D01*
X579878Y382290D01*
X579880Y382309D01*
X579858Y382411D01*
X579842Y382513D01*
X579832Y382530D01*
X579828Y382550D01*
X579775Y382639D01*
X579726Y382730D01*
X579712Y382744D01*
X579702Y382761D01*
X579623Y382828D01*
X579548Y382900D01*
X579530Y382908D01*
X579515Y382921D01*
X579419Y382960D01*
X579325Y383003D01*
X579305Y383005D01*
X579287Y383013D01*
X579120Y383031D01*
X574458Y383031D01*
X570537Y384655D01*
X567535Y387657D01*
X565911Y391578D01*
X565911Y395822D01*
X567535Y399743D01*
X570537Y402745D01*
X574458Y404369D01*
X593942Y404369D01*
X597863Y402745D01*
X600865Y399743D01*
X602489Y395822D01*
X602489Y391578D01*
X600865Y387657D01*
X597863Y384655D01*
X593942Y383031D01*
X589280Y383031D01*
X589260Y383028D01*
X589241Y383030D01*
X589139Y383008D01*
X589037Y382992D01*
X589020Y382982D01*
X589000Y382978D01*
X588911Y382925D01*
X588820Y382876D01*
X588806Y382862D01*
X588789Y382852D01*
X588722Y382773D01*
X588650Y382698D01*
X588642Y382680D01*
X588629Y382665D01*
X588590Y382569D01*
X588547Y382475D01*
X588545Y382455D01*
X588537Y382437D01*
X588519Y382270D01*
X588519Y313011D01*
X588528Y312952D01*
X588528Y312892D01*
X588548Y312831D01*
X588558Y312768D01*
X588586Y312715D01*
X588605Y312658D01*
X588653Y312587D01*
X588521Y311002D01*
X588523Y310979D01*
X588519Y310939D01*
X588519Y309348D01*
X588492Y309321D01*
X588463Y309264D01*
X588426Y309212D01*
X588409Y309155D01*
X588382Y309102D01*
X588365Y309017D01*
X587151Y307990D01*
X587136Y307972D01*
X587104Y307947D01*
X585979Y306822D01*
X585942Y306822D01*
X585881Y306802D01*
X585818Y306792D01*
X585765Y306764D01*
X585708Y306745D01*
X585629Y306692D01*
X585601Y306676D01*
X585590Y306665D01*
X585569Y306651D01*
X511734Y244175D01*
X511717Y244156D01*
X511696Y244141D01*
X511638Y244063D01*
X511574Y243988D01*
X511565Y243964D01*
X511550Y243944D01*
X511519Y243851D01*
X511483Y243760D01*
X511481Y243734D01*
X511473Y243710D01*
X511474Y243612D01*
X511469Y243514D01*
X511475Y243490D01*
X511476Y243464D01*
X511522Y243303D01*
X511557Y243220D01*
X511557Y239380D01*
X510087Y235832D01*
X507372Y233117D01*
X503824Y231647D01*
X486776Y231647D01*
X483228Y233117D01*
X480513Y235832D01*
X480232Y236511D01*
X480170Y236611D01*
X480110Y236711D01*
X480105Y236715D01*
X480102Y236720D01*
X480011Y236795D01*
X479923Y236871D01*
X479917Y236873D01*
X479912Y236877D01*
X479804Y236919D01*
X479695Y236963D01*
X479687Y236964D01*
X479683Y236965D01*
X479665Y236966D01*
X479528Y236981D01*
X454148Y236981D01*
X454057Y236967D01*
X453967Y236959D01*
X453937Y236947D01*
X453905Y236942D01*
X453824Y236899D01*
X453740Y236863D01*
X453708Y236837D01*
X453687Y236826D01*
X453665Y236803D01*
X453609Y236758D01*
X448498Y231647D01*
X440502Y231647D01*
G37*
%LPD*%
%LPC*%
G36*
X440502Y345947D02*
X440502Y345947D01*
X434847Y351602D01*
X434847Y359598D01*
X440502Y365253D01*
X448498Y365253D01*
X453609Y360142D01*
X453683Y360089D01*
X453753Y360029D01*
X453783Y360017D01*
X453809Y359998D01*
X453896Y359971D01*
X453981Y359937D01*
X454022Y359933D01*
X454044Y359926D01*
X454076Y359927D01*
X454148Y359919D01*
X479528Y359919D01*
X479643Y359938D01*
X479759Y359955D01*
X479765Y359957D01*
X479771Y359958D01*
X479873Y360013D01*
X479978Y360066D01*
X479983Y360071D01*
X479988Y360074D01*
X480068Y360158D01*
X480151Y360242D01*
X480154Y360248D01*
X480158Y360252D01*
X480166Y360269D01*
X480232Y360389D01*
X480513Y361068D01*
X483228Y363783D01*
X486776Y365253D01*
X503824Y365253D01*
X506735Y364047D01*
X506759Y364041D01*
X506780Y364030D01*
X506878Y364013D01*
X506975Y363991D01*
X506999Y363993D01*
X507023Y363989D01*
X507121Y364004D01*
X507220Y364014D01*
X507242Y364024D01*
X507266Y364027D01*
X507418Y364097D01*
X530040Y377670D01*
X530124Y377741D01*
X530210Y377810D01*
X530220Y377823D01*
X530227Y377829D01*
X530242Y377853D01*
X530309Y377945D01*
X554381Y420071D01*
X554420Y420177D01*
X554463Y420282D01*
X554464Y420294D01*
X554467Y420302D01*
X554468Y420327D01*
X554481Y420449D01*
X554481Y420889D01*
X555265Y421673D01*
X555275Y421687D01*
X555289Y421698D01*
X555388Y421833D01*
X555938Y422796D01*
X556362Y422912D01*
X556465Y422959D01*
X556569Y423003D01*
X556579Y423010D01*
X556586Y423014D01*
X556604Y423031D01*
X556700Y423108D01*
X557011Y423419D01*
X558120Y423419D01*
X558137Y423422D01*
X558154Y423420D01*
X558320Y423446D01*
X559390Y423737D01*
X559771Y423519D01*
X559877Y423480D01*
X559982Y423437D01*
X559994Y423436D01*
X560002Y423433D01*
X560027Y423432D01*
X560149Y423419D01*
X566312Y423419D01*
X566427Y423438D01*
X566543Y423455D01*
X566549Y423457D01*
X566555Y423458D01*
X566658Y423513D01*
X566763Y423566D01*
X566767Y423571D01*
X566773Y423574D01*
X566853Y423658D01*
X566935Y423742D01*
X566939Y423748D01*
X566942Y423752D01*
X566950Y423769D01*
X567016Y423889D01*
X567535Y425143D01*
X570537Y428145D01*
X574458Y429769D01*
X593942Y429769D01*
X597863Y428145D01*
X600865Y425143D01*
X602489Y421222D01*
X602489Y416978D01*
X600865Y413057D01*
X597863Y410055D01*
X593942Y408431D01*
X574458Y408431D01*
X570537Y410055D01*
X567535Y413057D01*
X567016Y414311D01*
X566954Y414411D01*
X566894Y414511D01*
X566890Y414515D01*
X566886Y414520D01*
X566796Y414595D01*
X566707Y414671D01*
X566702Y414673D01*
X566697Y414677D01*
X566588Y414719D01*
X566479Y414763D01*
X566472Y414764D01*
X566467Y414765D01*
X566449Y414766D01*
X566312Y414781D01*
X561748Y414781D01*
X561680Y414770D01*
X561610Y414769D01*
X561559Y414750D01*
X561505Y414742D01*
X561444Y414709D01*
X561379Y414686D01*
X561336Y414652D01*
X561288Y414626D01*
X561240Y414576D01*
X561186Y414533D01*
X561141Y414472D01*
X561119Y414448D01*
X561109Y414428D01*
X561087Y414398D01*
X537497Y373116D01*
X537490Y373096D01*
X537478Y373080D01*
X537420Y372923D01*
X537156Y371867D01*
X536760Y371630D01*
X536676Y371558D01*
X536590Y371490D01*
X536580Y371477D01*
X536573Y371471D01*
X536558Y371447D01*
X536491Y371355D01*
X536262Y370954D01*
X535212Y370668D01*
X535194Y370659D01*
X535173Y370656D01*
X535021Y370586D01*
X511926Y356729D01*
X511880Y356690D01*
X511827Y356658D01*
X511786Y356611D01*
X511739Y356570D01*
X511707Y356518D01*
X511667Y356471D01*
X511644Y356413D01*
X511611Y356360D01*
X511598Y356300D01*
X511575Y356243D01*
X511565Y356152D01*
X511558Y356120D01*
X511560Y356103D01*
X511557Y356077D01*
X511557Y353680D01*
X510087Y350132D01*
X507372Y347417D01*
X503824Y345947D01*
X486776Y345947D01*
X483228Y347417D01*
X480513Y350132D01*
X480232Y350811D01*
X480170Y350911D01*
X480110Y351011D01*
X480105Y351015D01*
X480102Y351020D01*
X480011Y351095D01*
X479923Y351171D01*
X479917Y351173D01*
X479912Y351177D01*
X479804Y351219D01*
X479695Y351263D01*
X479687Y351264D01*
X479683Y351265D01*
X479665Y351266D01*
X479528Y351281D01*
X454148Y351281D01*
X454058Y351267D01*
X453967Y351259D01*
X453937Y351247D01*
X453905Y351242D01*
X453824Y351199D01*
X453740Y351163D01*
X453708Y351137D01*
X453687Y351126D01*
X453665Y351103D01*
X453609Y351058D01*
X448498Y345947D01*
X440502Y345947D01*
G37*
%LPD*%
%LPC*%
G36*
X574458Y433831D02*
X574458Y433831D01*
X570537Y435455D01*
X567535Y438457D01*
X565911Y442378D01*
X565911Y444660D01*
X565905Y444697D01*
X565908Y444734D01*
X565885Y444818D01*
X565872Y444902D01*
X565854Y444935D01*
X565844Y444972D01*
X565797Y445044D01*
X565756Y445120D01*
X565729Y445146D01*
X565708Y445177D01*
X565641Y445230D01*
X565578Y445289D01*
X565544Y445305D01*
X565514Y445328D01*
X565359Y445392D01*
X507974Y461787D01*
X507926Y461793D01*
X507880Y461808D01*
X507804Y461807D01*
X507729Y461816D01*
X507682Y461806D01*
X507634Y461806D01*
X507511Y461770D01*
X507489Y461765D01*
X507483Y461762D01*
X507473Y461759D01*
X503824Y460247D01*
X486776Y460247D01*
X483228Y461717D01*
X480513Y464432D01*
X480232Y465111D01*
X480170Y465211D01*
X480110Y465311D01*
X480105Y465315D01*
X480102Y465320D01*
X480011Y465395D01*
X479923Y465471D01*
X479917Y465473D01*
X479912Y465477D01*
X479804Y465519D01*
X479695Y465563D01*
X479687Y465564D01*
X479683Y465565D01*
X479665Y465566D01*
X479528Y465581D01*
X454148Y465581D01*
X454058Y465567D01*
X453967Y465559D01*
X453937Y465547D01*
X453905Y465542D01*
X453824Y465499D01*
X453740Y465463D01*
X453708Y465437D01*
X453687Y465426D01*
X453665Y465403D01*
X453609Y465358D01*
X448498Y460247D01*
X440502Y460247D01*
X434847Y465902D01*
X434847Y473898D01*
X440502Y479553D01*
X448498Y479553D01*
X453609Y474442D01*
X453683Y474389D01*
X453753Y474329D01*
X453783Y474317D01*
X453809Y474298D01*
X453896Y474271D01*
X453981Y474237D01*
X454022Y474233D01*
X454044Y474226D01*
X454076Y474227D01*
X454148Y474219D01*
X479528Y474219D01*
X479643Y474238D01*
X479759Y474255D01*
X479765Y474257D01*
X479771Y474258D01*
X479873Y474313D01*
X479978Y474366D01*
X479983Y474371D01*
X479988Y474374D01*
X480068Y474458D01*
X480151Y474542D01*
X480154Y474548D01*
X480158Y474552D01*
X480166Y474569D01*
X480232Y474689D01*
X480513Y475368D01*
X483228Y478083D01*
X486776Y479553D01*
X503824Y479553D01*
X507372Y478083D01*
X510087Y475368D01*
X511557Y471820D01*
X511557Y470321D01*
X511563Y470284D01*
X511560Y470246D01*
X511583Y470163D01*
X511596Y470078D01*
X511614Y470045D01*
X511624Y470009D01*
X511671Y469937D01*
X511712Y469861D01*
X511739Y469835D01*
X511760Y469804D01*
X511827Y469751D01*
X511890Y469691D01*
X511924Y469676D01*
X511954Y469653D01*
X512109Y469589D01*
X569601Y453163D01*
X569674Y453154D01*
X569746Y453136D01*
X569796Y453140D01*
X569845Y453134D01*
X569918Y453149D01*
X569991Y453155D01*
X570037Y453175D01*
X570086Y453185D01*
X570150Y453223D01*
X570218Y453252D01*
X570271Y453294D01*
X570298Y453310D01*
X570314Y453329D01*
X570348Y453356D01*
X570537Y453545D01*
X574458Y455169D01*
X593942Y455169D01*
X597863Y453545D01*
X600865Y450543D01*
X602489Y446622D01*
X602489Y442378D01*
X600865Y438457D01*
X597863Y435455D01*
X593942Y433831D01*
X574458Y433831D01*
G37*
%LPD*%
%LPC*%
G36*
X574458Y510031D02*
X574458Y510031D01*
X570537Y511655D01*
X567535Y514657D01*
X565911Y518578D01*
X565911Y522822D01*
X566393Y523984D01*
X566419Y524097D01*
X566448Y524209D01*
X566447Y524217D01*
X566449Y524224D01*
X566438Y524340D01*
X566429Y524455D01*
X566426Y524461D01*
X566426Y524469D01*
X566379Y524575D01*
X566334Y524681D01*
X566329Y524687D01*
X566326Y524693D01*
X566248Y524779D01*
X566171Y524865D01*
X566163Y524870D01*
X566159Y524875D01*
X566141Y524885D01*
X566030Y524957D01*
X532541Y541701D01*
X532453Y541728D01*
X532368Y541763D01*
X532328Y541767D01*
X532306Y541774D01*
X532274Y541773D01*
X532201Y541781D01*
X531611Y541781D01*
X530929Y542463D01*
X530898Y542486D01*
X530872Y542515D01*
X530731Y542606D01*
X529869Y543037D01*
X529682Y543597D01*
X529639Y543678D01*
X529603Y543763D01*
X529578Y543794D01*
X529568Y543814D01*
X529544Y543837D01*
X529498Y543894D01*
X529081Y544311D01*
X529081Y545276D01*
X529075Y545314D01*
X529077Y545352D01*
X529042Y545516D01*
X528737Y546431D01*
X529001Y546959D01*
X529028Y547047D01*
X529063Y547132D01*
X529067Y547172D01*
X529074Y547194D01*
X529073Y547226D01*
X529081Y547299D01*
X529081Y599952D01*
X529067Y600043D01*
X529059Y600133D01*
X529047Y600163D01*
X529042Y600195D01*
X528999Y600276D01*
X528963Y600360D01*
X528937Y600392D01*
X528926Y600413D01*
X528903Y600435D01*
X528858Y600491D01*
X523747Y605602D01*
X523747Y613598D01*
X529402Y619253D01*
X537398Y619253D01*
X543053Y613598D01*
X543053Y605602D01*
X537942Y600491D01*
X537889Y600417D01*
X537829Y600347D01*
X537817Y600317D01*
X537798Y600291D01*
X537771Y600204D01*
X537737Y600119D01*
X537733Y600078D01*
X537726Y600056D01*
X537727Y600024D01*
X537719Y599952D01*
X537719Y549240D01*
X537733Y549151D01*
X537740Y549061D01*
X537753Y549030D01*
X537758Y548997D01*
X537801Y548917D01*
X537836Y548834D01*
X537858Y548809D01*
X537874Y548779D01*
X537939Y548717D01*
X537999Y548650D01*
X538034Y548627D01*
X538052Y548610D01*
X538081Y548597D01*
X538140Y548559D01*
X573087Y531085D01*
X573200Y531050D01*
X573312Y531013D01*
X573317Y531014D01*
X573322Y531012D01*
X573439Y531015D01*
X573558Y531016D01*
X573564Y531018D01*
X573568Y531018D01*
X573583Y531023D01*
X573719Y531063D01*
X574458Y531369D01*
X593942Y531369D01*
X597863Y529745D01*
X600865Y526743D01*
X602489Y522822D01*
X602489Y518578D01*
X600865Y514657D01*
X597863Y511655D01*
X593942Y510031D01*
X574458Y510031D01*
G37*
%LPD*%
%LPC*%
G36*
X486776Y371347D02*
X486776Y371347D01*
X483228Y372817D01*
X480513Y375532D01*
X480232Y376211D01*
X480170Y376311D01*
X480110Y376411D01*
X480105Y376415D01*
X480102Y376420D01*
X480011Y376495D01*
X479923Y376571D01*
X479917Y376573D01*
X479912Y376577D01*
X479804Y376619D01*
X479695Y376663D01*
X479687Y376664D01*
X479683Y376665D01*
X479665Y376666D01*
X479528Y376681D01*
X455411Y376681D01*
X448268Y383824D01*
X448194Y383877D01*
X448125Y383937D01*
X448095Y383949D01*
X448068Y383968D01*
X447981Y383995D01*
X447897Y384029D01*
X447856Y384033D01*
X447833Y384040D01*
X447801Y384039D01*
X447730Y384047D01*
X440502Y384047D01*
X434847Y389702D01*
X434847Y397698D01*
X440502Y403353D01*
X448498Y403353D01*
X454153Y397698D01*
X454153Y390470D01*
X454167Y390380D01*
X454175Y390289D01*
X454187Y390259D01*
X454192Y390227D01*
X454235Y390147D01*
X454271Y390063D01*
X454297Y390031D01*
X454308Y390010D01*
X454331Y389988D01*
X454376Y389932D01*
X458766Y385542D01*
X458840Y385489D01*
X458909Y385429D01*
X458939Y385417D01*
X458966Y385398D01*
X459053Y385371D01*
X459137Y385337D01*
X459178Y385333D01*
X459201Y385326D01*
X459233Y385327D01*
X459304Y385319D01*
X479528Y385319D01*
X479643Y385338D01*
X479759Y385355D01*
X479765Y385357D01*
X479771Y385358D01*
X479873Y385413D01*
X479978Y385466D01*
X479983Y385471D01*
X479988Y385474D01*
X480068Y385558D01*
X480151Y385642D01*
X480154Y385648D01*
X480158Y385652D01*
X480166Y385669D01*
X480232Y385789D01*
X480513Y386468D01*
X483228Y389183D01*
X486776Y390653D01*
X503824Y390653D01*
X507372Y389183D01*
X510087Y386468D01*
X511557Y382920D01*
X511557Y379080D01*
X510087Y375532D01*
X507372Y372817D01*
X503824Y371347D01*
X486776Y371347D01*
G37*
%LPD*%
%LPC*%
G36*
X486776Y485647D02*
X486776Y485647D01*
X483228Y487117D01*
X480513Y489832D01*
X480232Y490511D01*
X480170Y490611D01*
X480110Y490711D01*
X480105Y490715D01*
X480102Y490720D01*
X480011Y490795D01*
X479923Y490871D01*
X479917Y490873D01*
X479912Y490877D01*
X479804Y490919D01*
X479695Y490963D01*
X479687Y490964D01*
X479683Y490965D01*
X479665Y490966D01*
X479528Y490981D01*
X455411Y490981D01*
X448268Y498124D01*
X448194Y498177D01*
X448125Y498237D01*
X448095Y498249D01*
X448068Y498268D01*
X447981Y498295D01*
X447897Y498329D01*
X447856Y498333D01*
X447833Y498340D01*
X447801Y498339D01*
X447730Y498347D01*
X440502Y498347D01*
X434847Y504002D01*
X434847Y511998D01*
X440502Y517653D01*
X448498Y517653D01*
X454153Y511998D01*
X454153Y504770D01*
X454167Y504680D01*
X454175Y504589D01*
X454187Y504559D01*
X454192Y504527D01*
X454235Y504447D01*
X454271Y504363D01*
X454297Y504331D01*
X454308Y504310D01*
X454331Y504288D01*
X454376Y504232D01*
X458766Y499842D01*
X458840Y499789D01*
X458909Y499729D01*
X458939Y499717D01*
X458966Y499698D01*
X459053Y499671D01*
X459137Y499637D01*
X459178Y499633D01*
X459201Y499626D01*
X459233Y499627D01*
X459304Y499619D01*
X479528Y499619D01*
X479643Y499638D01*
X479759Y499655D01*
X479765Y499657D01*
X479771Y499658D01*
X479873Y499713D01*
X479978Y499766D01*
X479983Y499771D01*
X479988Y499774D01*
X480068Y499858D01*
X480151Y499942D01*
X480154Y499948D01*
X480158Y499952D01*
X480166Y499969D01*
X480232Y500089D01*
X480513Y500768D01*
X483228Y503483D01*
X486776Y504953D01*
X503824Y504953D01*
X507372Y503483D01*
X510087Y500768D01*
X511557Y497220D01*
X511557Y493380D01*
X510087Y489832D01*
X507372Y487117D01*
X503824Y485647D01*
X486776Y485647D01*
G37*
%LPD*%
%LPC*%
G36*
X486776Y257047D02*
X486776Y257047D01*
X483228Y258517D01*
X480513Y261232D01*
X480232Y261911D01*
X480170Y262011D01*
X480110Y262111D01*
X480105Y262115D01*
X480102Y262120D01*
X480011Y262195D01*
X479923Y262271D01*
X479917Y262273D01*
X479912Y262277D01*
X479804Y262319D01*
X479695Y262363D01*
X479687Y262364D01*
X479683Y262365D01*
X479665Y262366D01*
X479528Y262381D01*
X470724Y262381D01*
X470686Y262375D01*
X470648Y262377D01*
X470484Y262342D01*
X469569Y262037D01*
X469041Y262301D01*
X468953Y262328D01*
X468867Y262363D01*
X468828Y262367D01*
X468806Y262374D01*
X468774Y262373D01*
X468701Y262381D01*
X468111Y262381D01*
X467429Y263063D01*
X467398Y263086D01*
X467372Y263115D01*
X467231Y263206D01*
X450872Y271385D01*
X450852Y271392D01*
X450835Y271403D01*
X450735Y271428D01*
X450638Y271458D01*
X450617Y271458D01*
X450596Y271463D01*
X450494Y271455D01*
X450392Y271453D01*
X450372Y271445D01*
X450351Y271444D01*
X450257Y271404D01*
X450160Y271369D01*
X450144Y271356D01*
X450125Y271348D01*
X449994Y271243D01*
X448498Y269747D01*
X440502Y269747D01*
X434847Y275402D01*
X434847Y283398D01*
X440502Y289053D01*
X448498Y289053D01*
X454153Y283398D01*
X454153Y279873D01*
X454167Y279784D01*
X454174Y279694D01*
X454187Y279663D01*
X454192Y279630D01*
X454235Y279550D01*
X454270Y279467D01*
X454292Y279442D01*
X454308Y279412D01*
X454373Y279350D01*
X454433Y279283D01*
X454468Y279260D01*
X454486Y279243D01*
X454515Y279230D01*
X454574Y279192D01*
X470759Y271099D01*
X470847Y271072D01*
X470932Y271037D01*
X470972Y271033D01*
X470994Y271026D01*
X471026Y271027D01*
X471099Y271019D01*
X479528Y271019D01*
X479643Y271038D01*
X479759Y271055D01*
X479765Y271057D01*
X479771Y271058D01*
X479873Y271113D01*
X479978Y271166D01*
X479983Y271171D01*
X479988Y271174D01*
X480068Y271258D01*
X480151Y271342D01*
X480154Y271348D01*
X480158Y271352D01*
X480166Y271369D01*
X480232Y271489D01*
X480513Y272168D01*
X483228Y274883D01*
X486776Y276353D01*
X503824Y276353D01*
X507372Y274883D01*
X510087Y272168D01*
X511557Y268620D01*
X511557Y264780D01*
X510087Y261232D01*
X507372Y258517D01*
X503824Y257047D01*
X486776Y257047D01*
G37*
%LPD*%
%LPC*%
G36*
X366380Y345947D02*
X366380Y345947D01*
X362832Y347417D01*
X360117Y350132D01*
X358647Y353680D01*
X358647Y357520D01*
X360117Y361068D01*
X362832Y363783D01*
X366380Y365253D01*
X383428Y365253D01*
X386976Y363783D01*
X389691Y361068D01*
X389972Y360389D01*
X390034Y360289D01*
X390094Y360189D01*
X390099Y360185D01*
X390102Y360180D01*
X390193Y360105D01*
X390281Y360029D01*
X390287Y360027D01*
X390292Y360023D01*
X390400Y359981D01*
X390509Y359937D01*
X390517Y359936D01*
X390521Y359935D01*
X390539Y359934D01*
X390676Y359919D01*
X409452Y359919D01*
X409542Y359933D01*
X409633Y359941D01*
X409663Y359953D01*
X409695Y359958D01*
X409776Y360001D01*
X409860Y360037D01*
X409892Y360063D01*
X409913Y360074D01*
X409935Y360097D01*
X409991Y360142D01*
X415102Y365253D01*
X423098Y365253D01*
X428753Y359598D01*
X428753Y351602D01*
X423098Y345947D01*
X415102Y345947D01*
X409991Y351058D01*
X409917Y351111D01*
X409847Y351171D01*
X409817Y351183D01*
X409791Y351202D01*
X409704Y351229D01*
X409619Y351263D01*
X409578Y351267D01*
X409556Y351274D01*
X409524Y351273D01*
X409452Y351281D01*
X390676Y351281D01*
X390561Y351262D01*
X390445Y351245D01*
X390439Y351243D01*
X390433Y351242D01*
X390331Y351187D01*
X390226Y351134D01*
X390221Y351129D01*
X390216Y351126D01*
X390136Y351042D01*
X390053Y350958D01*
X390050Y350952D01*
X390046Y350948D01*
X390038Y350931D01*
X389972Y350811D01*
X389691Y350132D01*
X386976Y347417D01*
X383428Y345947D01*
X366380Y345947D01*
G37*
%LPD*%
%LPC*%
G36*
X366380Y231647D02*
X366380Y231647D01*
X362832Y233117D01*
X360117Y235832D01*
X358647Y239380D01*
X358647Y243220D01*
X360117Y246768D01*
X362832Y249483D01*
X366380Y250953D01*
X383428Y250953D01*
X386976Y249483D01*
X389691Y246768D01*
X389972Y246089D01*
X390034Y245989D01*
X390094Y245889D01*
X390099Y245885D01*
X390102Y245880D01*
X390193Y245805D01*
X390281Y245729D01*
X390287Y245727D01*
X390292Y245723D01*
X390400Y245681D01*
X390509Y245637D01*
X390517Y245636D01*
X390521Y245635D01*
X390539Y245634D01*
X390676Y245619D01*
X409452Y245619D01*
X409542Y245633D01*
X409633Y245641D01*
X409663Y245653D01*
X409695Y245658D01*
X409776Y245701D01*
X409860Y245737D01*
X409892Y245763D01*
X409913Y245774D01*
X409935Y245797D01*
X409991Y245842D01*
X415102Y250953D01*
X423098Y250953D01*
X428753Y245298D01*
X428753Y237302D01*
X423098Y231647D01*
X415102Y231647D01*
X409991Y236758D01*
X409917Y236811D01*
X409847Y236871D01*
X409817Y236883D01*
X409791Y236902D01*
X409704Y236929D01*
X409619Y236963D01*
X409578Y236967D01*
X409556Y236974D01*
X409524Y236973D01*
X409452Y236981D01*
X390676Y236981D01*
X390561Y236962D01*
X390445Y236945D01*
X390439Y236943D01*
X390433Y236942D01*
X390331Y236887D01*
X390226Y236834D01*
X390221Y236829D01*
X390216Y236826D01*
X390136Y236742D01*
X390053Y236658D01*
X390050Y236652D01*
X390046Y236648D01*
X390038Y236631D01*
X389972Y236511D01*
X389691Y235832D01*
X386976Y233117D01*
X383428Y231647D01*
X366380Y231647D01*
G37*
%LPD*%
%LPC*%
G36*
X366380Y460247D02*
X366380Y460247D01*
X362832Y461717D01*
X360117Y464432D01*
X358647Y467980D01*
X358647Y471820D01*
X360117Y475368D01*
X362832Y478083D01*
X366380Y479553D01*
X383428Y479553D01*
X386976Y478083D01*
X389691Y475368D01*
X389972Y474689D01*
X390034Y474589D01*
X390094Y474489D01*
X390099Y474485D01*
X390102Y474480D01*
X390193Y474405D01*
X390281Y474329D01*
X390287Y474327D01*
X390292Y474323D01*
X390400Y474281D01*
X390509Y474237D01*
X390517Y474236D01*
X390521Y474235D01*
X390539Y474234D01*
X390676Y474219D01*
X409452Y474219D01*
X409543Y474233D01*
X409633Y474241D01*
X409663Y474253D01*
X409695Y474258D01*
X409776Y474301D01*
X409860Y474337D01*
X409892Y474363D01*
X409913Y474374D01*
X409935Y474397D01*
X409991Y474442D01*
X415102Y479553D01*
X423098Y479553D01*
X428753Y473898D01*
X428753Y465902D01*
X423098Y460247D01*
X415102Y460247D01*
X409991Y465358D01*
X409917Y465411D01*
X409847Y465471D01*
X409817Y465483D01*
X409791Y465502D01*
X409704Y465529D01*
X409619Y465563D01*
X409578Y465567D01*
X409556Y465574D01*
X409524Y465573D01*
X409452Y465581D01*
X390676Y465581D01*
X390561Y465562D01*
X390445Y465545D01*
X390439Y465543D01*
X390433Y465542D01*
X390331Y465487D01*
X390226Y465434D01*
X390221Y465429D01*
X390216Y465426D01*
X390136Y465342D01*
X390053Y465258D01*
X390050Y465252D01*
X390046Y465248D01*
X390038Y465231D01*
X389972Y465111D01*
X389691Y464432D01*
X386976Y461717D01*
X383428Y460247D01*
X366380Y460247D01*
G37*
%LPD*%
%LPC*%
G36*
X366380Y625347D02*
X366380Y625347D01*
X362832Y626817D01*
X360117Y629532D01*
X358647Y633080D01*
X358647Y636920D01*
X360117Y640468D01*
X362832Y643183D01*
X366380Y644653D01*
X383428Y644653D01*
X386976Y643183D01*
X389691Y640468D01*
X391161Y636920D01*
X391161Y633080D01*
X389691Y629532D01*
X386976Y626817D01*
X383428Y625347D01*
X366380Y625347D01*
G37*
%LPD*%
%LPC*%
G36*
X366380Y396747D02*
X366380Y396747D01*
X362832Y398217D01*
X360117Y400932D01*
X358647Y404480D01*
X358647Y408320D01*
X360117Y411868D01*
X362832Y414583D01*
X366380Y416053D01*
X383428Y416053D01*
X386976Y414583D01*
X389691Y411868D01*
X391161Y408320D01*
X391161Y404480D01*
X389691Y400932D01*
X386976Y398217D01*
X383428Y396747D01*
X366380Y396747D01*
G37*
%LPD*%
%LPC*%
G36*
X366380Y511047D02*
X366380Y511047D01*
X362832Y512517D01*
X360117Y515232D01*
X358647Y518780D01*
X358647Y522620D01*
X360117Y526168D01*
X362832Y528883D01*
X366380Y530353D01*
X383428Y530353D01*
X386976Y528883D01*
X389691Y526168D01*
X391161Y522620D01*
X391161Y518780D01*
X389691Y515232D01*
X386976Y512517D01*
X383428Y511047D01*
X366380Y511047D01*
G37*
%LPD*%
%LPC*%
G36*
X366380Y282447D02*
X366380Y282447D01*
X362832Y283917D01*
X360117Y286632D01*
X358647Y290180D01*
X358647Y294020D01*
X360117Y297568D01*
X362832Y300283D01*
X366380Y301753D01*
X383428Y301753D01*
X386976Y300283D01*
X389691Y297568D01*
X391161Y294020D01*
X391161Y290180D01*
X389691Y286632D01*
X386976Y283917D01*
X383428Y282447D01*
X366380Y282447D01*
G37*
%LPD*%
%LPC*%
G36*
X369823Y496823D02*
X369823Y496823D01*
X369823Y504445D01*
X382409Y504445D01*
X384175Y504093D01*
X385840Y503404D01*
X387338Y502403D01*
X388611Y501129D01*
X389612Y499632D01*
X390301Y497967D01*
X390529Y496823D01*
X369823Y496823D01*
G37*
%LPD*%
%LPC*%
G36*
X369823Y382523D02*
X369823Y382523D01*
X369823Y390145D01*
X382409Y390145D01*
X384175Y389793D01*
X385840Y389104D01*
X387338Y388103D01*
X388611Y386830D01*
X389612Y385332D01*
X390301Y383667D01*
X390529Y382523D01*
X369823Y382523D01*
G37*
%LPD*%
%LPC*%
G36*
X369823Y585723D02*
X369823Y585723D01*
X369823Y593345D01*
X382409Y593345D01*
X384175Y592993D01*
X385840Y592304D01*
X387338Y591303D01*
X388611Y590030D01*
X389612Y588532D01*
X390301Y586867D01*
X390529Y585723D01*
X369823Y585723D01*
G37*
%LPD*%
%LPC*%
G36*
X369823Y268223D02*
X369823Y268223D01*
X369823Y275845D01*
X382409Y275845D01*
X384175Y275493D01*
X385840Y274804D01*
X387338Y273803D01*
X388611Y272530D01*
X389612Y271032D01*
X390301Y269367D01*
X390529Y268223D01*
X369823Y268223D01*
G37*
%LPD*%
%LPC*%
G36*
X369823Y575055D02*
X369823Y575055D01*
X369823Y582677D01*
X390529Y582677D01*
X390301Y581533D01*
X389612Y579868D01*
X388611Y578370D01*
X387338Y577097D01*
X385840Y576096D01*
X384175Y575407D01*
X382409Y575055D01*
X369823Y575055D01*
G37*
%LPD*%
%LPC*%
G36*
X369823Y371855D02*
X369823Y371855D01*
X369823Y379477D01*
X390529Y379477D01*
X390301Y378333D01*
X389612Y376668D01*
X388611Y375170D01*
X387338Y373897D01*
X385840Y372896D01*
X384175Y372207D01*
X382409Y371855D01*
X369823Y371855D01*
G37*
%LPD*%
%LPC*%
G36*
X369823Y257555D02*
X369823Y257555D01*
X369823Y265177D01*
X390529Y265177D01*
X390301Y264033D01*
X389612Y262368D01*
X388611Y260870D01*
X387338Y259597D01*
X385840Y258596D01*
X384175Y257907D01*
X382409Y257555D01*
X369823Y257555D01*
G37*
%LPD*%
%LPC*%
G36*
X369823Y486155D02*
X369823Y486155D01*
X369823Y493777D01*
X390529Y493777D01*
X390301Y492633D01*
X389612Y490968D01*
X388611Y489470D01*
X387338Y488197D01*
X385840Y487196D01*
X384175Y486507D01*
X382409Y486155D01*
X369823Y486155D01*
G37*
%LPD*%
%LPC*%
G36*
X585723Y496823D02*
X585723Y496823D01*
X585723Y505461D01*
X592620Y505461D01*
X594199Y505211D01*
X595720Y504716D01*
X597145Y503990D01*
X598439Y503050D01*
X599570Y501919D01*
X600510Y500625D01*
X601236Y499200D01*
X601731Y497679D01*
X601866Y496823D01*
X585723Y496823D01*
G37*
%LPD*%
%LPC*%
G36*
X566534Y496823D02*
X566534Y496823D01*
X566669Y497679D01*
X567164Y499200D01*
X567890Y500625D01*
X568830Y501919D01*
X569961Y503050D01*
X571255Y503990D01*
X572680Y504716D01*
X574201Y505211D01*
X575780Y505461D01*
X582677Y505461D01*
X582677Y496823D01*
X566534Y496823D01*
G37*
%LPD*%
%LPC*%
G36*
X585723Y485139D02*
X585723Y485139D01*
X585723Y493777D01*
X601866Y493777D01*
X601731Y492921D01*
X601236Y491400D01*
X600510Y489975D01*
X599570Y488681D01*
X598439Y487550D01*
X597145Y486610D01*
X595720Y485884D01*
X594199Y485389D01*
X592620Y485139D01*
X585723Y485139D01*
G37*
%LPD*%
%LPC*%
G36*
X575780Y485139D02*
X575780Y485139D01*
X574201Y485389D01*
X572680Y485884D01*
X571255Y486610D01*
X569961Y487550D01*
X568830Y488681D01*
X567890Y489975D01*
X567164Y491400D01*
X566669Y492921D01*
X566534Y493777D01*
X582677Y493777D01*
X582677Y485139D01*
X575780Y485139D01*
G37*
%LPD*%
%LPC*%
G36*
X80480Y561339D02*
X80480Y561339D01*
X78901Y561589D01*
X77380Y562084D01*
X75955Y562810D01*
X74661Y563750D01*
X73530Y564881D01*
X72590Y566175D01*
X71864Y567600D01*
X71369Y569121D01*
X71234Y569977D01*
X87377Y569977D01*
X87377Y561339D01*
X80480Y561339D01*
G37*
%LPD*%
%LPC*%
G36*
X90423Y636523D02*
X90423Y636523D01*
X90423Y644145D01*
X92688Y644145D01*
X98045Y638788D01*
X98045Y636523D01*
X90423Y636523D01*
G37*
%LPD*%
%LPC*%
G36*
X420623Y280923D02*
X420623Y280923D01*
X420623Y288545D01*
X422888Y288545D01*
X428245Y283188D01*
X428245Y280923D01*
X420623Y280923D01*
G37*
%LPD*%
%LPC*%
G36*
X420623Y509523D02*
X420623Y509523D01*
X420623Y517145D01*
X422888Y517145D01*
X428245Y511788D01*
X428245Y509523D01*
X420623Y509523D01*
G37*
%LPD*%
%LPC*%
G36*
X420623Y395223D02*
X420623Y395223D01*
X420623Y402845D01*
X422888Y402845D01*
X428245Y397488D01*
X428245Y395223D01*
X420623Y395223D01*
G37*
%LPD*%
%LPC*%
G36*
X409955Y280923D02*
X409955Y280923D01*
X409955Y283188D01*
X415312Y288545D01*
X417577Y288545D01*
X417577Y280923D01*
X409955Y280923D01*
G37*
%LPD*%
%LPC*%
G36*
X409955Y395223D02*
X409955Y395223D01*
X409955Y397488D01*
X415312Y402845D01*
X417577Y402845D01*
X417577Y395223D01*
X409955Y395223D01*
G37*
%LPD*%
%LPC*%
G36*
X79755Y636523D02*
X79755Y636523D01*
X79755Y638788D01*
X85112Y644145D01*
X87377Y644145D01*
X87377Y636523D01*
X79755Y636523D01*
G37*
%LPD*%
%LPC*%
G36*
X409955Y509523D02*
X409955Y509523D01*
X409955Y511788D01*
X415312Y517145D01*
X417577Y517145D01*
X417577Y509523D01*
X409955Y509523D01*
G37*
%LPD*%
%LPC*%
G36*
X90423Y625855D02*
X90423Y625855D01*
X90423Y633477D01*
X98045Y633477D01*
X98045Y631212D01*
X92688Y625855D01*
X90423Y625855D01*
G37*
%LPD*%
%LPC*%
G36*
X420623Y498855D02*
X420623Y498855D01*
X420623Y506477D01*
X428245Y506477D01*
X428245Y504212D01*
X422888Y498855D01*
X420623Y498855D01*
G37*
%LPD*%
%LPC*%
G36*
X420623Y384555D02*
X420623Y384555D01*
X420623Y392177D01*
X428245Y392177D01*
X428245Y389912D01*
X422888Y384555D01*
X420623Y384555D01*
G37*
%LPD*%
%LPC*%
G36*
X420623Y270255D02*
X420623Y270255D01*
X420623Y277877D01*
X428245Y277877D01*
X428245Y275612D01*
X422888Y270255D01*
X420623Y270255D01*
G37*
%LPD*%
%LPC*%
G36*
X85112Y625855D02*
X85112Y625855D01*
X79755Y631212D01*
X79755Y633477D01*
X87377Y633477D01*
X87377Y625855D01*
X85112Y625855D01*
G37*
%LPD*%
%LPC*%
G36*
X415312Y498855D02*
X415312Y498855D01*
X409955Y504212D01*
X409955Y506477D01*
X417577Y506477D01*
X417577Y498855D01*
X415312Y498855D01*
G37*
%LPD*%
%LPC*%
G36*
X415312Y384555D02*
X415312Y384555D01*
X409955Y389912D01*
X409955Y392177D01*
X417577Y392177D01*
X417577Y384555D01*
X415312Y384555D01*
G37*
%LPD*%
%LPC*%
G36*
X415312Y270255D02*
X415312Y270255D01*
X409955Y275612D01*
X409955Y277877D01*
X417577Y277877D01*
X417577Y270255D01*
X415312Y270255D01*
G37*
%LPD*%
%LPC*%
G36*
X359279Y496823D02*
X359279Y496823D01*
X359507Y497967D01*
X360196Y499632D01*
X361197Y501129D01*
X362470Y502403D01*
X363968Y503404D01*
X365633Y504093D01*
X366777Y504321D01*
X366777Y496823D01*
X359279Y496823D01*
G37*
%LPD*%
%LPC*%
G36*
X359279Y585723D02*
X359279Y585723D01*
X359507Y586867D01*
X360196Y588532D01*
X361197Y590030D01*
X362470Y591303D01*
X363968Y592304D01*
X365633Y592993D01*
X366777Y593221D01*
X366777Y585723D01*
X359279Y585723D01*
G37*
%LPD*%
%LPC*%
G36*
X359279Y382523D02*
X359279Y382523D01*
X359507Y383667D01*
X360196Y385332D01*
X361197Y386830D01*
X362470Y388103D01*
X363968Y389104D01*
X365633Y389793D01*
X366777Y390021D01*
X366777Y382523D01*
X359279Y382523D01*
G37*
%LPD*%
%LPC*%
G36*
X359279Y268223D02*
X359279Y268223D01*
X359507Y269367D01*
X360196Y271032D01*
X361197Y272530D01*
X362470Y273803D01*
X363968Y274804D01*
X365633Y275493D01*
X366777Y275721D01*
X366777Y268223D01*
X359279Y268223D01*
G37*
%LPD*%
%LPC*%
G36*
X365633Y575407D02*
X365633Y575407D01*
X363968Y576096D01*
X362470Y577097D01*
X361197Y578370D01*
X360196Y579868D01*
X359507Y581533D01*
X359279Y582677D01*
X366777Y582677D01*
X366777Y575179D01*
X365633Y575407D01*
G37*
%LPD*%
%LPC*%
G36*
X365633Y372207D02*
X365633Y372207D01*
X363968Y372896D01*
X362470Y373897D01*
X361197Y375170D01*
X360196Y376668D01*
X359507Y378333D01*
X359279Y379477D01*
X366777Y379477D01*
X366777Y371979D01*
X365633Y372207D01*
G37*
%LPD*%
%LPC*%
G36*
X365633Y486507D02*
X365633Y486507D01*
X363968Y487196D01*
X362470Y488197D01*
X361197Y489470D01*
X360196Y490968D01*
X359507Y492633D01*
X359279Y493777D01*
X366777Y493777D01*
X366777Y486279D01*
X365633Y486507D01*
G37*
%LPD*%
%LPC*%
G36*
X365633Y257907D02*
X365633Y257907D01*
X363968Y258596D01*
X362470Y259597D01*
X361197Y260870D01*
X360196Y262368D01*
X359507Y264033D01*
X359279Y265177D01*
X366777Y265177D01*
X366777Y257679D01*
X365633Y257907D01*
G37*
%LPD*%
%LPC*%
G36*
X88899Y634999D02*
X88899Y634999D01*
X88899Y635001D01*
X88901Y635001D01*
X88901Y634999D01*
X88899Y634999D01*
G37*
%LPD*%
%LPC*%
G36*
X368299Y584199D02*
X368299Y584199D01*
X368299Y584201D01*
X368301Y584201D01*
X368301Y584199D01*
X368299Y584199D01*
G37*
%LPD*%
%LPC*%
G36*
X368299Y495299D02*
X368299Y495299D01*
X368299Y495301D01*
X368301Y495301D01*
X368301Y495299D01*
X368299Y495299D01*
G37*
%LPD*%
%LPC*%
G36*
X584199Y495299D02*
X584199Y495299D01*
X584199Y495301D01*
X584201Y495301D01*
X584201Y495299D01*
X584199Y495299D01*
G37*
%LPD*%
%LPC*%
G36*
X419099Y507999D02*
X419099Y507999D01*
X419099Y508001D01*
X419101Y508001D01*
X419101Y507999D01*
X419099Y507999D01*
G37*
%LPD*%
%LPC*%
G36*
X368299Y380999D02*
X368299Y380999D01*
X368299Y381001D01*
X368301Y381001D01*
X368301Y380999D01*
X368299Y380999D01*
G37*
%LPD*%
%LPC*%
G36*
X419099Y279399D02*
X419099Y279399D01*
X419099Y279401D01*
X419101Y279401D01*
X419101Y279399D01*
X419099Y279399D01*
G37*
%LPD*%
%LPC*%
G36*
X368299Y266699D02*
X368299Y266699D01*
X368299Y266701D01*
X368301Y266701D01*
X368301Y266699D01*
X368299Y266699D01*
G37*
%LPD*%
%LPC*%
G36*
X419099Y393699D02*
X419099Y393699D01*
X419099Y393701D01*
X419101Y393701D01*
X419101Y393699D01*
X419099Y393699D01*
G37*
%LPD*%
D10*
X292100Y635000D02*
X278892Y635000D01*
X278892Y609600D02*
X292100Y609600D01*
X368300Y609600D02*
X381508Y609600D01*
X381508Y635000D02*
X368300Y635000D01*
X292100Y584200D02*
X278892Y584200D01*
X368300Y584200D02*
X381508Y584200D01*
D11*
X88900Y635000D03*
X190500Y635000D03*
X127000Y584200D03*
X228600Y584200D03*
X431800Y609600D03*
X533400Y609600D03*
D10*
X381508Y469900D02*
X368300Y469900D01*
X368300Y495300D02*
X381508Y495300D01*
X292100Y495300D02*
X278892Y495300D01*
X278892Y469900D02*
X292100Y469900D01*
X368300Y520700D02*
X381508Y520700D01*
X292100Y520700D02*
X278892Y520700D01*
D12*
X109220Y457200D02*
X93980Y457200D01*
X93980Y482600D02*
X109220Y482600D01*
X109220Y508000D02*
X93980Y508000D01*
D13*
X241300Y469900D03*
X215900Y469900D03*
X444500Y469900D03*
X419100Y469900D03*
X228600Y508000D03*
X203200Y508000D03*
D14*
X165100Y457200D03*
D15*
X165100Y482600D03*
D10*
X488696Y495300D02*
X501904Y495300D01*
X501904Y469900D02*
X488696Y469900D01*
D13*
X444500Y508000D03*
X419100Y508000D03*
D10*
X381508Y355600D02*
X368300Y355600D01*
X368300Y381000D02*
X381508Y381000D01*
X292100Y381000D02*
X278892Y381000D01*
X278892Y355600D02*
X292100Y355600D01*
X368300Y406400D02*
X381508Y406400D01*
X292100Y406400D02*
X278892Y406400D01*
D12*
X109220Y342900D02*
X93980Y342900D01*
X93980Y368300D02*
X109220Y368300D01*
X109220Y393700D02*
X93980Y393700D01*
D13*
X241300Y355600D03*
X215900Y355600D03*
X444500Y355600D03*
X419100Y355600D03*
X228600Y393700D03*
X203200Y393700D03*
D14*
X165100Y342900D03*
D15*
X165100Y368300D03*
D10*
X488696Y381000D02*
X501904Y381000D01*
X501904Y355600D02*
X488696Y355600D01*
D13*
X444500Y393700D03*
X419100Y393700D03*
D10*
X381508Y241300D02*
X368300Y241300D01*
X368300Y266700D02*
X381508Y266700D01*
X292100Y266700D02*
X278892Y266700D01*
X278892Y241300D02*
X292100Y241300D01*
X368300Y292100D02*
X381508Y292100D01*
X292100Y292100D02*
X278892Y292100D01*
D12*
X109220Y228600D02*
X93980Y228600D01*
X93980Y254000D02*
X109220Y254000D01*
X109220Y279400D02*
X93980Y279400D01*
D13*
X241300Y241300D03*
X215900Y241300D03*
X444500Y241300D03*
X419100Y241300D03*
X228600Y279400D03*
X203200Y279400D03*
D14*
X165100Y228600D03*
D15*
X165100Y254000D03*
D10*
X488696Y266700D02*
X501904Y266700D01*
X501904Y241300D02*
X488696Y241300D01*
D13*
X444500Y279400D03*
X419100Y279400D03*
D12*
X576580Y520700D02*
X591820Y520700D01*
X591820Y495300D02*
X576580Y495300D01*
X576580Y469900D02*
X591820Y469900D01*
X591820Y444500D02*
X576580Y444500D01*
X576580Y419100D02*
X591820Y419100D01*
X591820Y393700D02*
X576580Y393700D01*
X96520Y596900D02*
X81280Y596900D01*
X81280Y571500D02*
X96520Y571500D01*
D16*
X228600Y584200D02*
X254000Y609600D01*
X292100Y609600D01*
X292100Y635000D02*
X190500Y635000D01*
D17*
X368300Y609600D02*
X431800Y609600D01*
X438150Y558800D02*
X584200Y469900D01*
X438150Y558800D02*
X438150Y609600D01*
X431800Y609600D01*
D16*
X114300Y596900D02*
X88900Y596900D01*
X114300Y596900D02*
X127000Y584200D01*
X152400Y508000D02*
X127000Y482600D01*
X101600Y482600D01*
X152400Y508000D02*
X203200Y508000D01*
X203200Y393700D02*
X152400Y393700D01*
X127000Y368300D01*
X101600Y368300D01*
X152400Y279400D02*
X203200Y279400D01*
X152400Y279400D02*
X127000Y254000D01*
X101600Y254000D01*
D17*
X533400Y546100D02*
X584200Y520700D01*
X533400Y546100D02*
X533400Y609600D01*
X495300Y241300D02*
X444500Y241300D01*
X584200Y311150D02*
X584200Y393700D01*
X584200Y311150D02*
X501650Y241300D01*
X495300Y241300D01*
D16*
X292100Y469900D02*
X241300Y469900D01*
X190500Y469900D02*
X165100Y482600D01*
X190500Y469900D02*
X215900Y469900D01*
X190500Y469900D02*
X228600Y508000D01*
D17*
X368300Y469900D02*
X419100Y469900D01*
D16*
X292100Y520700D02*
X273050Y527050D01*
X133350Y527050D01*
X114300Y508000D01*
X101600Y508000D01*
X101600Y457200D02*
X165100Y457200D01*
D17*
X444500Y508000D02*
X457200Y495300D01*
X495300Y495300D01*
D16*
X292100Y355600D02*
X241300Y355600D01*
X190500Y355600D02*
X165100Y368300D01*
X190500Y355600D02*
X215900Y355600D01*
X190500Y355600D02*
X228600Y393700D01*
D17*
X368300Y355600D02*
X419100Y355600D01*
D16*
X292100Y406400D02*
X285750Y412750D01*
X133350Y412750D01*
X114300Y393700D01*
X101600Y393700D01*
D17*
X444500Y393700D02*
X457200Y381000D01*
X495300Y381000D01*
D16*
X292100Y241300D02*
X241300Y241300D01*
X203200Y241300D02*
X165100Y254000D01*
X203200Y241300D02*
X215900Y241300D01*
X203200Y241300D02*
X228600Y279400D01*
D17*
X368300Y241300D02*
X419100Y241300D01*
D16*
X292100Y292100D02*
X285750Y298450D01*
X133350Y298450D01*
X114300Y279400D01*
X101600Y279400D01*
D17*
X444500Y279400D02*
X469900Y266700D01*
X495300Y266700D01*
D16*
X165100Y228600D02*
X101600Y228600D01*
X101600Y342900D02*
X165100Y342900D01*
D17*
X444500Y469900D02*
X495300Y469900D01*
X584200Y444500D01*
X495300Y355600D02*
X444500Y355600D01*
X533400Y374650D02*
X558800Y419100D01*
X533400Y374650D02*
X501650Y355600D01*
X495300Y355600D01*
X558800Y419100D02*
X584200Y419100D01*
M02*
