M48
;GenerationSoftware,Autodesk,EAGLE,8.6.0*%
;CreationDate,2018-02-02T01:37:18Z*%
FMAT,2
ICI,OFF
METRIC,TZ,000.000
T3C0.813
T2C1.000
T1C1.016
%
G90
M71
T1
X10160Y45720
X10160Y36830
X58420Y44450
X58420Y46990
X58420Y49530
X10160Y48260
X10160Y50800
X58420Y52070
X10160Y27940
X10160Y25400
X8890Y57150
X10160Y22860
X10160Y39370
X10160Y34290
X8890Y59690
X58420Y39370
X58420Y41910
T2
X60960Y64770
X60960Y19050
T3
X29210Y63500
X29210Y60960
X36830Y60960
X36830Y63500
X29210Y58420
X36830Y58420
X8890Y63500
X19050Y63500
X22860Y58420
X43180Y60960
X53340Y60960
X36830Y46990
X36830Y49530
X29210Y49530
X29210Y46990
X36830Y52070
X29210Y52070
X12700Y58420
X24130Y46990
X21590Y46990
X44450Y46990
X41910Y46990
X22860Y50800
X20320Y50800
X29210Y40640
X24130Y35560
X21590Y35560
X44450Y35560
X41910Y35560
X22860Y39370
X20320Y39370
X16510Y34290
X16510Y36830
X49530Y38100
X49530Y35560
X44450Y39370
X41910Y39370
X36830Y24130
X36830Y26670
X29210Y26670
X29210Y24130
X36830Y29210
X29210Y29210
X36830Y40640
X29210Y35560
X29210Y38100
X24130Y24130
X21590Y24130
X44450Y24130
X41910Y24130
X22860Y27940
X20320Y27940
X16510Y22860
X16510Y25400
X49530Y26670
X49530Y46990
X44450Y27940
X41910Y27940
X36830Y38100
X36830Y35560
X41910Y50800
X44450Y50800
X49530Y49530
X16510Y48260
X16510Y45720
X49530Y24130
M30