G04 EAGLE Gerber X2 export*
%TF.Part,Single*%
%TF.FileFunction,Profile,NP*%
%TF.FilePolarity,Positive*%
%TF.GenerationSoftware,Autodesk,EAGLE,8.6.0*%
%TF.CreationDate,2018-02-02T01:37:18Z*%
G75*
%MOMM*%
%FSLAX34Y34*%
%LPD*%
%AMOC8*
5,1,8,0,0,1.08239X$1,22.5*%
G01*
%ADD10C,0.254000*%


D10*
X38100Y177800D02*
X619000Y177800D01*
X619000Y660300D01*
X38100Y660300D01*
X38100Y177800D01*
X614600Y190219D02*
X614537Y189661D01*
X614412Y189114D01*
X614227Y188584D01*
X613983Y188078D01*
X613684Y187602D01*
X613334Y187163D01*
X612937Y186766D01*
X612498Y186416D01*
X612022Y186117D01*
X611516Y185873D01*
X610986Y185688D01*
X610439Y185563D01*
X609881Y185500D01*
X609319Y185500D01*
X608761Y185563D01*
X608214Y185688D01*
X607684Y185873D01*
X607178Y186117D01*
X606702Y186416D01*
X606263Y186766D01*
X605866Y187163D01*
X605516Y187602D01*
X605217Y188078D01*
X604973Y188584D01*
X604788Y189114D01*
X604663Y189661D01*
X604600Y190219D01*
X604600Y190781D01*
X604663Y191339D01*
X604788Y191886D01*
X604973Y192416D01*
X605217Y192922D01*
X605516Y193398D01*
X605866Y193837D01*
X606263Y194234D01*
X606702Y194584D01*
X607178Y194883D01*
X607684Y195127D01*
X608214Y195312D01*
X608761Y195437D01*
X609319Y195500D01*
X609881Y195500D01*
X610439Y195437D01*
X610986Y195312D01*
X611516Y195127D01*
X612022Y194883D01*
X612498Y194584D01*
X612937Y194234D01*
X613334Y193837D01*
X613684Y193398D01*
X613983Y192922D01*
X614227Y192416D01*
X614412Y191886D01*
X614537Y191339D01*
X614600Y190781D01*
X614600Y190219D01*
X614600Y647419D02*
X614537Y646861D01*
X614412Y646314D01*
X614227Y645784D01*
X613983Y645278D01*
X613684Y644802D01*
X613334Y644363D01*
X612937Y643966D01*
X612498Y643616D01*
X612022Y643317D01*
X611516Y643073D01*
X610986Y642888D01*
X610439Y642763D01*
X609881Y642700D01*
X609319Y642700D01*
X608761Y642763D01*
X608214Y642888D01*
X607684Y643073D01*
X607178Y643317D01*
X606702Y643616D01*
X606263Y643966D01*
X605866Y644363D01*
X605516Y644802D01*
X605217Y645278D01*
X604973Y645784D01*
X604788Y646314D01*
X604663Y646861D01*
X604600Y647419D01*
X604600Y647981D01*
X604663Y648539D01*
X604788Y649086D01*
X604973Y649616D01*
X605217Y650122D01*
X605516Y650598D01*
X605866Y651037D01*
X606263Y651434D01*
X606702Y651784D01*
X607178Y652083D01*
X607684Y652327D01*
X608214Y652512D01*
X608761Y652637D01*
X609319Y652700D01*
X609881Y652700D01*
X610439Y652637D01*
X610986Y652512D01*
X611516Y652327D01*
X612022Y652083D01*
X612498Y651784D01*
X612937Y651434D01*
X613334Y651037D01*
X613684Y650598D01*
X613983Y650122D01*
X614227Y649616D01*
X614412Y649086D01*
X614537Y648539D01*
X614600Y647981D01*
X614600Y647419D01*
X614600Y190219D02*
X614537Y189661D01*
X614412Y189114D01*
X614227Y188584D01*
X613983Y188078D01*
X613684Y187602D01*
X613334Y187163D01*
X612937Y186766D01*
X612498Y186416D01*
X612022Y186117D01*
X611516Y185873D01*
X610986Y185688D01*
X610439Y185563D01*
X609881Y185500D01*
X609319Y185500D01*
X608761Y185563D01*
X608214Y185688D01*
X607684Y185873D01*
X607178Y186117D01*
X606702Y186416D01*
X606263Y186766D01*
X605866Y187163D01*
X605516Y187602D01*
X605217Y188078D01*
X604973Y188584D01*
X604788Y189114D01*
X604663Y189661D01*
X604600Y190219D01*
X604600Y190781D01*
X604663Y191339D01*
X604788Y191886D01*
X604973Y192416D01*
X605217Y192922D01*
X605516Y193398D01*
X605866Y193837D01*
X606263Y194234D01*
X606702Y194584D01*
X607178Y194883D01*
X607684Y195127D01*
X608214Y195312D01*
X608761Y195437D01*
X609319Y195500D01*
X609881Y195500D01*
X610439Y195437D01*
X610986Y195312D01*
X611516Y195127D01*
X612022Y194883D01*
X612498Y194584D01*
X612937Y194234D01*
X613334Y193837D01*
X613684Y193398D01*
X613983Y192922D01*
X614227Y192416D01*
X614412Y191886D01*
X614537Y191339D01*
X614600Y190781D01*
X614600Y190219D01*
X614600Y647419D02*
X614537Y646861D01*
X614412Y646314D01*
X614227Y645784D01*
X613983Y645278D01*
X613684Y644802D01*
X613334Y644363D01*
X612937Y643966D01*
X612498Y643616D01*
X612022Y643317D01*
X611516Y643073D01*
X610986Y642888D01*
X610439Y642763D01*
X609881Y642700D01*
X609319Y642700D01*
X608761Y642763D01*
X608214Y642888D01*
X607684Y643073D01*
X607178Y643317D01*
X606702Y643616D01*
X606263Y643966D01*
X605866Y644363D01*
X605516Y644802D01*
X605217Y645278D01*
X604973Y645784D01*
X604788Y646314D01*
X604663Y646861D01*
X604600Y647419D01*
X604600Y647981D01*
X604663Y648539D01*
X604788Y649086D01*
X604973Y649616D01*
X605217Y650122D01*
X605516Y650598D01*
X605866Y651037D01*
X606263Y651434D01*
X606702Y651784D01*
X607178Y652083D01*
X607684Y652327D01*
X608214Y652512D01*
X608761Y652637D01*
X609319Y652700D01*
X609881Y652700D01*
X610439Y652637D01*
X610986Y652512D01*
X611516Y652327D01*
X612022Y652083D01*
X612498Y651784D01*
X612937Y651434D01*
X613334Y651037D01*
X613684Y650598D01*
X613983Y650122D01*
X614227Y649616D01*
X614412Y649086D01*
X614537Y648539D01*
X614600Y647981D01*
X614600Y647419D01*
M02*
