G04 EAGLE Gerber X2 export*
%TF.Part,Single*%
%TF.FileFunction,Soldermask,Top,1*%
%TF.FilePolarity,Negative*%
%TF.GenerationSoftware,Autodesk,EAGLE,8.6.0*%
%TF.CreationDate,2018-02-02T01:37:18Z*%
G75*
%MOMM*%
%FSLAX34Y34*%
%LPD*%
%AMOC8*
5,1,8,0,0,1.08239X$1,22.5*%
G01*
%ADD10C,1.203200*%
%ADD11C,1.524000*%
%ADD12P,1.649562X8X22.500000*%
%ADD13C,1.727200*%
%ADD14P,1.649562X8X202.500000*%
%ADD15P,1.649562X8X292.500000*%
%ADD16C,1.524000*%


D10*
X609600Y190500D03*
X609600Y647700D03*
D11*
X292100Y635000D02*
X278892Y635000D01*
X278892Y609600D02*
X292100Y609600D01*
X368300Y609600D02*
X381508Y609600D01*
X381508Y635000D02*
X368300Y635000D01*
X292100Y584200D02*
X278892Y584200D01*
X368300Y584200D02*
X381508Y584200D01*
D12*
X88900Y635000D03*
X190500Y635000D03*
X127000Y584200D03*
X228600Y584200D03*
X431800Y609600D03*
X533400Y609600D03*
D11*
X381508Y469900D02*
X368300Y469900D01*
X368300Y495300D02*
X381508Y495300D01*
X292100Y495300D02*
X278892Y495300D01*
X278892Y469900D02*
X292100Y469900D01*
X368300Y520700D02*
X381508Y520700D01*
X292100Y520700D02*
X278892Y520700D01*
D13*
X109220Y457200D02*
X93980Y457200D01*
X93980Y482600D02*
X109220Y482600D01*
X109220Y508000D02*
X93980Y508000D01*
D14*
X241300Y469900D03*
X215900Y469900D03*
X444500Y469900D03*
X419100Y469900D03*
X228600Y508000D03*
X203200Y508000D03*
D15*
X165100Y457200D03*
D16*
X165100Y482600D03*
D11*
X488696Y495300D02*
X501904Y495300D01*
X501904Y469900D02*
X488696Y469900D01*
D14*
X444500Y508000D03*
X419100Y508000D03*
D11*
X381508Y355600D02*
X368300Y355600D01*
X368300Y381000D02*
X381508Y381000D01*
X292100Y381000D02*
X278892Y381000D01*
X278892Y355600D02*
X292100Y355600D01*
X368300Y406400D02*
X381508Y406400D01*
X292100Y406400D02*
X278892Y406400D01*
D13*
X109220Y342900D02*
X93980Y342900D01*
X93980Y368300D02*
X109220Y368300D01*
X109220Y393700D02*
X93980Y393700D01*
D14*
X241300Y355600D03*
X215900Y355600D03*
X444500Y355600D03*
X419100Y355600D03*
X228600Y393700D03*
X203200Y393700D03*
D15*
X165100Y342900D03*
D16*
X165100Y368300D03*
D11*
X488696Y381000D02*
X501904Y381000D01*
X501904Y355600D02*
X488696Y355600D01*
D14*
X444500Y393700D03*
X419100Y393700D03*
D11*
X381508Y241300D02*
X368300Y241300D01*
X368300Y266700D02*
X381508Y266700D01*
X292100Y266700D02*
X278892Y266700D01*
X278892Y241300D02*
X292100Y241300D01*
X368300Y292100D02*
X381508Y292100D01*
X292100Y292100D02*
X278892Y292100D01*
D13*
X109220Y228600D02*
X93980Y228600D01*
X93980Y254000D02*
X109220Y254000D01*
X109220Y279400D02*
X93980Y279400D01*
D14*
X241300Y241300D03*
X215900Y241300D03*
X444500Y241300D03*
X419100Y241300D03*
X228600Y279400D03*
X203200Y279400D03*
D15*
X165100Y228600D03*
D16*
X165100Y254000D03*
D11*
X488696Y266700D02*
X501904Y266700D01*
X501904Y241300D02*
X488696Y241300D01*
D14*
X444500Y279400D03*
X419100Y279400D03*
D13*
X576580Y520700D02*
X591820Y520700D01*
X591820Y495300D02*
X576580Y495300D01*
X576580Y469900D02*
X591820Y469900D01*
X591820Y444500D02*
X576580Y444500D01*
X576580Y419100D02*
X591820Y419100D01*
X591820Y393700D02*
X576580Y393700D01*
X96520Y596900D02*
X81280Y596900D01*
X81280Y571500D02*
X96520Y571500D01*
M02*
